<svg width="20" height="21" viewBox="0 0 20 21" fill="none" xmlns="http://www.w3.org/2000/svg">
<g clip-path="url(#clip0_2_87)">
<path d="M19.9895 10.6871C19.9895 9.8677 19.9215 9.26976 19.7743 8.64968H10.1993V12.348H15.8196C15.7063 13.2671 15.0944 14.6512 13.7346 15.5813L13.7156 15.7051L16.743 17.9969L16.9527 18.0174C18.879 16.2789 19.9895 13.7211 19.9895 10.6871Z" fill="#4285F4"/>
<path d="M10.1992 20.4313C12.9526 20.4313 15.2642 19.5454 16.9526 18.0174L13.7345 15.5813C12.8733 16.1682 11.7175 16.5779 10.1992 16.5779C7.50233 16.5779 5.21342 14.8395 4.39749 12.4366L4.27789 12.4466L1.12994 14.8273L1.08877 14.9391C2.76578 18.1945 6.21051 20.4313 10.1992 20.4313Z" fill="#34A853"/>
<path d="M4.39757 12.4367C4.18228 11.8166 4.05768 11.1522 4.05768 10.4657C4.05768 9.77911 4.18228 9.11476 4.38624 8.49468L4.38054 8.36262L1.19313 5.94369L1.08885 5.99216C0.397668 7.34308 0.00106812 8.8601 0.00106812 10.4657C0.00106812 12.0712 0.397668 13.5882 1.08885 14.9391L4.39757 12.4367Z" fill="#FBBC05"/>
<path d="M10.1992 4.35338C12.1141 4.35338 13.4059 5.1617 14.1424 5.8372L17.0206 3.09109C15.2529 1.48552 12.9526 0.500023 10.1992 0.500023C6.21051 0.500023 2.76578 2.73674 1.08877 5.99216L4.38616 8.49468C5.21342 6.09185 7.50233 4.35338 10.1992 4.35338Z" fill="#EB4335"/>
</g>
<defs>
<clipPath id="clip0_2_87">
<rect width="20" height="20" fill="white" transform="translate(0 0.5)"/>
</clipPath>
</defs>
</svg>
