<svg width="64" height="64" viewBox="0 0 64 64" fill="none" xmlns="http://www.w3.org/2000/svg">
<path d="M32.362 5.99918C17.7395 5.80168 5.80199 17.7392 5.99949 32.3617C6.19449 46.3854 17.6132 57.8042 31.637 57.9992C46.262 58.1992 58.197 46.2617 57.997 31.6392C57.8045 17.6129 46.3857 6.19418 32.362 5.99918ZM48.1645 46.9054C48.1147 46.9593 48.0537 47.0015 47.9857 47.0291C47.9178 47.0568 47.8446 47.0691 47.7714 47.0653C47.6981 47.0615 47.6266 47.0416 47.5619 47.0071C47.4972 46.9725 47.4409 46.9242 47.397 46.8654C46.2789 45.4026 44.9097 44.1502 43.3532 43.1667C40.1707 41.1242 36.1382 39.9992 31.9995 39.9992C27.8607 39.9992 23.8282 41.1242 20.6457 43.1667C19.0893 44.1498 17.7201 45.4018 16.602 46.8642C16.5581 46.9229 16.5018 46.9713 16.4371 47.0058C16.3724 47.0403 16.3008 47.0602 16.2276 47.064C16.1544 47.0679 16.0812 47.0555 16.0132 47.0279C15.9453 47.0003 15.8843 46.958 15.8345 46.9042C12.1666 42.9446 10.0889 37.7708 9.99949 32.3742C9.79574 20.2104 19.777 10.0292 31.9457 9.99918C44.1145 9.96918 53.9995 19.8504 53.9995 31.9992C54.0037 37.5259 51.9195 42.8502 48.1645 46.9054Z" fill="#F5F0F0"/>
<path d="M31.9993 18.0031C29.534 18.0031 27.3049 18.927 25.7209 20.606C24.1369 22.285 23.3456 24.6066 23.5244 27.0982C23.8869 32.0051 27.6887 36.0057 31.9993 36.0057C36.3099 36.0057 40.1042 32.0051 40.4743 27.0994C40.6593 24.6316 39.8742 22.3312 38.264 20.621C36.6737 18.9332 34.4484 18.0031 31.9993 18.0031Z" fill="#F5F0F0"/>
</svg>
