<svg width="25" height="25" viewBox="0 0 25 25" fill="none" xmlns="http://www.w3.org/2000/svg">
<path d="M21.8748 3.1256H3.12476C2.26181 3.1256 1.56226 3.82515 1.56226 4.6881V17.1881C1.56226 18.051 2.26181 18.7506 3.12476 18.7506H21.8748C22.7377 18.7506 23.4373 18.051 23.4373 17.1881V4.6881C23.4373 3.82515 22.7377 3.1256 21.8748 3.1256Z" stroke="white" stroke-width="1.00189" stroke-linejoin="round"/>
<path d="M14.8474 21.8777L14.4565 18.7504H10.5474L10.1565 21.8777H14.8474Z" fill="white" stroke="white" stroke-width="1.00189" stroke-linecap="round" stroke-linejoin="round"/>
<path d="M17.967 21.8748H7.02954" stroke="white" stroke-width="1.00189" stroke-linecap="round" stroke-linejoin="round"/>
<path d="M1.56226 14.8441V17.1878C1.56342 17.6019 1.72841 17.9986 2.02118 18.2914C2.31396 18.5842 2.71071 18.7492 3.12476 18.7503H21.8748C22.2888 18.7492 22.6856 18.5842 22.9783 18.2914C23.2711 17.9986 23.4361 17.6019 23.4373 17.1878V14.8441H1.56226ZM12.4998 17.9691C12.3452 17.9691 12.1942 17.9233 12.0657 17.8374C11.9372 17.7516 11.8371 17.6295 11.778 17.4868C11.7188 17.344 11.7034 17.187 11.7335 17.0354C11.7637 16.8839 11.8381 16.7447 11.9473 16.6354C12.0566 16.5261 12.1958 16.4517 12.3473 16.4216C12.4989 16.3914 12.656 16.4069 12.7987 16.466C12.9415 16.5252 13.0635 16.6253 13.1493 16.7538C13.2352 16.8823 13.281 17.0333 13.281 17.1878C13.281 17.395 13.1987 17.5937 13.0522 17.7402C12.9057 17.8868 12.707 17.9691 12.4998 17.9691Z" fill="white"/>
</svg>
