<svg width="48" height="50" viewBox="0 0 48 50" fill="none" xmlns="http://www.w3.org/2000/svg">
<g clip-path="url(#clip0_10_771)">
<path d="M6.14746 40.0369C6.10732 40.3454 6.07101 40.65 6.04616 40.9488C2.12787 36.4694 -0.179141 30.5216 0.0119948 24.0661C0.409558 10.6298 11.4744 0.0678412 24.7202 0.475947C30.8327 0.665356 36.3412 3.15305 40.4621 7.10133C39.818 8.16358 38.7304 9.46795 37.2396 11.2605C36.1616 12.5532 34.2559 14.8065 31.062 17.0911C27.4725 19.653 26.2187 19.4207 19.7009 22.7324C15.4271 24.9018 13.2902 25.9855 12.0383 27.202C7.22165 31.8826 6.36536 38.3947 6.14746 40.0369Z" fill="url(#paint0_linear_10_771)"/>
<path d="M47.9884 25.5479C47.5928 38.9861 36.5298 49.5461 23.2822 49.138C17.2384 48.9505 11.7872 46.5175 7.68164 42.6473C8.45956 41.7589 9.43436 40.7122 10.4531 39.4586C11.5197 38.1484 13.3966 35.8736 16.5637 33.5538C20.1227 30.9431 21.3804 31.1598 27.8599 27.772C32.1069 25.5479 34.2304 24.4388 35.4671 23.2066C40.2302 18.4695 41.0119 11.9456 41.2088 10.3034C41.3025 9.51652 41.247 8.63587 41.1228 7.75717C45.5438 12.3284 48.1929 18.6472 47.9884 25.5479Z" fill="url(#paint1_linear_10_771)"/>
</g>
<defs>
<linearGradient id="paint0_linear_10_771" x1="-16.118" y1="64.2557" x2="53.8232" y2="-31.8999" gradientUnits="userSpaceOnUse">
<stop stop-color="#54FF00"/>
<stop offset="1" stop-color="#DAFF46"/>
</linearGradient>
<linearGradient id="paint1_linear_10_771" x1="-8.38022" y1="72.9791" x2="63.6768" y2="-23.5691" gradientUnits="userSpaceOnUse">
<stop stop-color="#54FF00"/>
<stop offset="1" stop-color="#DAFF46"/>
</linearGradient>
<clipPath id="clip0_10_771">
<rect width="48" height="48.6857" fill="white" transform="translate(0 0.463989)"/>
</clipPath>
</defs>
</svg>
