<svg width="24" height="25" viewBox="0 0 24 25" fill="none" xmlns="http://www.w3.org/2000/svg">
<path d="M12 3.616C12.2549 3.61628 12.5 3.71388 12.6854 3.88885C12.8707 4.06381 12.9822 4.30295 12.9972 4.55739C13.0121 4.81183 12.9293 5.06238 12.7657 5.25783C12.6021 5.45328 12.3701 5.57889 12.117 5.609L12 5.616H7C6.75507 5.61603 6.51866 5.70595 6.33563 5.86871C6.15259 6.03147 6.03566 6.25575 6.007 6.499L6 6.616V18.616C6.00003 18.8609 6.08996 19.0973 6.25272 19.2804C6.41547 19.4634 6.63975 19.5803 6.883 19.609L7 19.616H11.5C11.7549 19.6163 12 19.7139 12.1854 19.8888C12.3707 20.0638 12.4822 20.3029 12.4972 20.5574C12.5121 20.8118 12.4293 21.0624 12.2657 21.2578C12.1021 21.4533 11.8701 21.5789 11.617 21.609L11.5 21.616H7C6.23479 21.616 5.49849 21.3237 4.94174 20.7987C4.38499 20.2738 4.04989 19.5559 4.005 18.792L4 18.616V6.616C3.99996 5.85079 4.29233 5.11448 4.81728 4.55774C5.34224 4.00099 6.06011 3.66589 6.824 3.621L7 3.616H12ZM17.707 9.08L20.535 11.909C20.7225 12.0965 20.8278 12.3508 20.8278 12.616C20.8278 12.8812 20.7225 13.1355 20.535 13.323L17.707 16.152C17.5194 16.3395 17.2649 16.4448 16.9996 16.4447C16.7344 16.4446 16.48 16.3391 16.2925 16.1515C16.105 15.9639 15.9997 15.7094 15.9998 15.4441C15.9999 15.1789 16.1054 14.9245 16.293 14.737L17.414 13.616H12C11.7348 13.616 11.4804 13.5106 11.2929 13.3231C11.1054 13.1356 11 12.8812 11 12.616C11 12.3508 11.1054 12.0964 11.2929 11.9089C11.4804 11.7214 11.7348 11.616 12 11.616H17.414L16.293 10.495C16.1054 10.3075 15.9999 10.0531 15.9998 9.78785C15.9997 9.52258 16.105 9.26814 16.2925 9.0805C16.48 8.89286 16.7344 8.78739 16.9996 8.78729C17.2649 8.7872 17.5194 8.89249 17.707 9.08Z" fill="white"/>
</svg>
