<svg width="24" height="25" viewBox="0 0 24 25" fill="none" xmlns="http://www.w3.org/2000/svg">
<path d="M24 12.616C24 5.98209 18.6339 0.615997 12 0.615997C5.36609 0.615997 0 5.98209 0 12.616C0 19.2499 5.36609 24.616 12 24.616C18.6339 24.616 24 19.2499 24 12.616ZM1.17936 12.616C1.17936 6.63074 6.04423 1.79536 12 1.79536C17.9558 1.79536 22.8206 6.63074 22.8206 12.616C22.8206 15.6529 21.5823 18.3949 19.5479 20.3408C17.9853 17.6578 15.1253 16.0067 11.9705 16.0067C8.84521 16.0067 5.95577 17.6873 4.39312 20.3408C2.41769 18.3949 1.17936 15.6529 1.17936 12.616ZM5.33661 21.1369C6.66339 18.7192 9.2285 17.186 12 17.186C14.801 17.186 17.3366 18.6897 18.6634 21.1369C16.8354 22.5816 14.5061 23.4366 12 23.4366C9.49386 23.4366 7.16462 22.5816 5.33661 21.1369Z" fill="white"/>
<path d="M12.0006 14.4735C14.5952 14.4735 16.7181 12.3506 16.7181 9.75605C16.7181 7.16146 14.5952 5.0386 12.0006 5.0386C9.40605 5.0386 7.2832 7.16146 7.2832 9.75605C7.2832 12.3506 9.40605 14.4735 12.0006 14.4735ZM12.0006 6.21797C13.9466 6.21797 15.5387 7.8101 15.5387 9.75605C15.5387 11.702 13.9466 13.2941 12.0006 13.2941C10.0547 13.2941 8.46256 11.702 8.46256 9.75605C8.46256 7.8101 10.0547 6.21797 12.0006 6.21797Z" fill="white"/>
</svg>
