<svg width="20" height="20" viewBox="0 0 20 20" fill="none" xmlns="http://www.w3.org/2000/svg">
<path fill-rule="evenodd" clip-rule="evenodd" d="M18.2557 0.731934C17.9235 0.731934 17.6049 0.863843 17.3699 1.09867L17.724 1.45297L17.3698 1.09878L16.3065 2.16213C16.1109 2.35773 16.1108 2.67485 16.3064 2.8705L17.3697 3.93432C17.4637 4.02831 17.5911 4.08112 17.724 4.08112C17.8569 4.08112 17.9844 4.02831 18.0783 3.93432L19.1417 2.8705L19.1417 2.87046C19.3765 2.63548 19.5084 2.31688 19.5084 1.98468C19.5084 1.65248 19.3765 1.33387 19.1417 1.0989L18.7874 1.453L19.1415 1.09867C18.9065 0.863843 18.5879 0.731934 18.2557 0.731934ZM18.0782 1.80728L18.0782 1.80723L18.4331 2.16221L18.433 2.16225L17.724 2.87157L17.369 2.51643L18.0781 1.80734L18.0782 1.80728ZM15.4238 3.74903C15.3298 3.65501 15.2022 3.60223 15.0693 3.6023C14.9363 3.60238 14.8088 3.6553 14.7149 3.74942L1.72447 16.7689C1.68762 16.8059 1.65677 16.8483 1.63302 16.8948L0.5549 19.0042C0.456021 19.1976 0.493118 19.4328 0.646753 19.5864C0.800388 19.74 1.03554 19.7771 1.22899 19.6782L3.33789 18.6001C3.38432 18.5763 3.42677 18.5455 3.46368 18.5086L16.4837 5.51818C16.5778 5.42428 16.6307 5.2968 16.6308 5.16384C16.6309 5.03089 16.5781 4.90335 16.4841 4.80934L15.4238 3.74903ZM2.48931 17.4209L15.0699 4.81209L15.421 5.16316L2.81176 17.7438L2.15181 18.0812L2.48931 17.4209Z" fill="white"/>
</svg>
